<svg xmlns="http://www.w3.org/2000/svg" viewBox="0 0 600 600" fill="none" shape-rendering="auto" width="512" height="512"><metadata xmlns:rdf="http://www.w3.org/1999/02/22-rdf-syntax-ns#" xmlns:xsi="http://www.w3.org/2001/XMLSchema-instance" xmlns:dc="http://purl.org/dc/elements/1.1/" xmlns:dcterms="http://purl.org/dc/terms/"><rdf:RDF><rdf:Description><dc:title>Lorelei Neutral</dc:title><dc:creator>Lisa Wischofsky</dc:creator><dc:source xsi:type="dcterms:URI">https://www.figma.com/community/file/1198749693280469639</dc:source><dcterms:license xsi:type="dcterms:URI">https://creativecommons.org/publicdomain/zero/1.0/</dcterms:license><dc:rights>Remix of „Lorelei Neutral” (https://www.figma.com/community/file/1198749693280469639) by „Lisa Wischofsky”, licensed under „CC0 1.0” (https://creativecommons.org/publicdomain/zero/1.0/)</dc:rights></rdf:Description></rdf:RDF></metadata><mask id="viewboxMask"><rect width="600" height="600" rx="0" ry="0" x="0" y="0" fill="#fff" /></mask><g mask="url(#viewboxMask)"><rect fill="#ffc8d8" width="600" height="600" x="0" y="0" /><g transform="translate(-246 -234)"><path d="M505 385c8 1 16 2 23 6 5 4 8 9 10 14l-2 2c-2 1-4-1-6-2-9-6-21-7-32-7-9 0-18 2-27 6-8 3-17 5-24 9l-19 7c-13 5-27 5-40 10-7 3-12 9-18 13l-9 9c1-8 5-16 10-22l13-13c7-6 17-9 26-11 10-2 19-6 29-9l19-5c8-2 15-5 23-6l24-1ZM671 399c7 1 14 4 22 4v3c-7 6-15 9-24 10-12 2-26-1-37 3l-5 3c-9 10-14 22-20 34-2-7 3-15 5-22s7-12 9-19c4-9 14-16 24-16h26Z" fill="#000000"/></g><g transform="translate(-246 -234)"><path d="m661 483 13 7 10 10c5 3 11 2 17 2-3 6-10 6-16 6-11 1-20-4-30-4l6 5c4 4 5 11 5 16-1 4-2 8-5 11-6 9-21 10-27 1-5-6-5-13-1-20-6 6-11 11-15 18-2 1-5 5-7 2-2-4 0-9 2-14 3-7 7-15 13-21 7-7 14-13 24-15l-4-2c4-3 10-3 15-2ZM453 487l-6 5c-6 3-11 7-15 11 8-3 15-6 23-7 13-3 26-1 37 5 9 3 16 8 22 15 5 6 9 13 9 21 0 2-1 4-4 4l-7-7-9-6c0 5-2 11-5 15-4 8-13 12-22 10-9-1-16-9-17-18-2-8 1-16 6-22-13 0-22 5-32 11-10 5-20 5-31 4-5 0-9-1-13-3l-2-2c7-1 15-2 21-5l5-4c6-16 24-26 40-27Z" fill="#000000"/></g><g transform="translate(-246 -234)"></g><g transform="translate(-246 -234)"><path d="M465 666c10-1 20 1 30 2 16 1 31 5 47 6h25l23-2c11-2 22-4 33-3 6 0 12 2 16 6 4 3 7 9 6 14-1 7-6 13-11 18l-24 13c-10 3-19 6-29 4-4-1-6-3-8-6 8-4 16-3 24-5 12-3 24-8 33-16 3-2 6-6 7-10s-2-6-5-8c-6-2-13-2-19-1-16 2-32 6-48 7l-28-1c-14-1-28-5-42-7l-27-2c-2 0-4-1-6 1-1 3 0 8 2 11 5 6 12 9 19 13l19 8c3 1 7 2 8 5 2 7 1 14 4 21 1 2 3 4 6 5 6-5 4-11 8-17 2-4 4-8 9-8 9-1 18 1 27 2 2 1 4 1 5 3 0 3-3 3-5 3-8 1-18-2-26-2-3-1-3 2-5 3-3 6-2 12-6 16-1 3-5 5-8 5-4-1-8-4-10-7-4-6-4-14-5-21-7-1-14-2-20-5l-17-8c-6-4-10-10-12-16v-14c2-4 6-6 10-7Z" fill="#000000"/></g><g transform="translate(-246 -234)"><path d="M594 572a37 37 0 0 1 19 29c0 9-5 18-13 22l-17 7c-4 1-6 2-9 0-2-3-1-4 1-6 6-5 15-7 21-12 3-2 5-5 5-9 0-10-5-17-7-26v-5Z" fill="#000000"/></g><g transform="translate(-246 -234)"><path fill-rule="evenodd" clip-rule="evenodd" d="M482 429c13 2 26 7 37 15 3-2 7-2 10 0a94 94 0 0 1 39 90c9-6 20-8 30-5-1-34 16-68 44-87 11-7 25-12 39-12 9 0 19 2 27 7l4 1 5 1c10 7 18 16 23 26 8 16 10 33 8 51-3 29-20 57-45 72-14 8-31 13-47 11-13-2-25-8-35-17-9-8-15-19-19-31-1-4-6-7-9-9-9-3-18 0-26 5l-5 7c-7 19-21 36-39 47a99 99 0 0 1-57 14c-31-1-60-18-76-45a92 92 0 0 1 30-127c18-11 41-16 62-14Zm35 19 1 4c0 2 2 3 4 5 12 8 22 19 27 33a81 81 0 0 1-56 111c-26 6-55-1-75-19a82 82 0 0 1-23-90c9-25 32-45 59-51 21-5 43-2 63 6v1Zm190-1c-1-1-1-2-3-2-8-4-17-5-26-4-15 2-29 9-40 20a88 88 0 0 0-26 77c2 13 9 26 19 36 9 7 19 11 30 12 14 1 27-4 39-11 25-18 40-52 35-82a63 63 0 0 0-23-41l-4-3-1-2Z" fill="#000000"/></g></g></svg>