<svg xmlns="http://www.w3.org/2000/svg" viewBox="0 0 600 600" fill="none" shape-rendering="auto" width="512" height="512"><metadata xmlns:rdf="http://www.w3.org/1999/02/22-rdf-syntax-ns#" xmlns:xsi="http://www.w3.org/2001/XMLSchema-instance" xmlns:dc="http://purl.org/dc/elements/1.1/" xmlns:dcterms="http://purl.org/dc/terms/"><rdf:RDF><rdf:Description><dc:title>Lorelei Neutral</dc:title><dc:creator>Lisa Wischofsky</dc:creator><dc:source xsi:type="dcterms:URI">https://www.figma.com/community/file/1198749693280469639</dc:source><dcterms:license xsi:type="dcterms:URI">https://creativecommons.org/publicdomain/zero/1.0/</dcterms:license><dc:rights>Remix of „Lorelei Neutral” (https://www.figma.com/community/file/1198749693280469639) by „Lisa Wischofsky”, licensed under „CC0 1.0” (https://creativecommons.org/publicdomain/zero/1.0/)</dc:rights></rdf:Description></rdf:RDF></metadata><mask id="viewboxMask"><rect width="600" height="600" rx="0" ry="0" x="0" y="0" fill="#fff" /></mask><g mask="url(#viewboxMask)"><rect fill="#97d4ff" width="600" height="600" x="0" y="0" /><g transform="translate(-246 -234)"><path d="M480 404c10 1 19 0 29 3 9 3 18 10 22 19 4 6 2 16-6 19-6 4-15 3-23 2-20-3-40-9-60-14l-20-4-10-2-4-4c2-4 6-6 10-7l20-7 18-3 24-2ZM656 410c8 1 15 4 22 7l9 4c2 2 3 6 1 8l-10 4c-17 4-33 11-51 12l-9 1c-3 0-6-2-8-4-3-2-4-5-4-9 0-7 2-15 8-20 4-3 11-4 16-5 8 0 17 0 26 2Z" fill="#000000"/></g><g transform="translate(-246 -234)"><path d="M669 473c8-1 16 1 22 6 3 3 6 7 6 11 1 5-4 10-9 10-4-1-6-3-8-6l-10-7c9 16 4 38-10 49-7 6-18 8-25 1-6-5-8-12-8-20-2 5-5 9-6 14-1 2-1 4-3 4-2-5-1-11 1-17 6-16 17-30 32-38 5-4 11-6 18-7ZM457 484c27 1 53 18 64 42 2 2 4 6 1 9-3 0-5-4-7-6-4-8-10-14-17-19 2 11 2 21-4 31-5 8-16 13-25 12-7-2-14-5-19-11-6-6-8-16-8-24 0-7 3-13 6-18-14 3-28 9-39 18-3 1-5 3-8 3-4-1-6-4-6-8 0-3 2-6 4-8 8-6 16-12 26-16s21-6 32-5Z" fill="#000000"/></g><g transform="translate(-246 -234)"></g><g transform="translate(-246 -234)"><path d="M655 663c3 1 4 2 5 5 2 6 1 14-5 18-5 5-13 9-16 15-2 5-6 8-11 10-7 5-15 9-24 8-10-1-17-6-26-8l-33-4-9-1c-4 1-8 2-13 1-5 0-9-2-13-3-10-2-16 5-26 3-5-1-9-6-10-12 0-7 2-12 5-18-5 0-8 3-12 6-1-3 1-5 2-8 3-4 8-6 13-7h8c3 2 3 6 2 9-2 6-6 12-5 18 1 3 5 3 8 2 5-1 11-2 16-1l10 2c6 1 13-3 19-2l22 3 23 5c7 3 13 7 21 6 6-1 12-6 16-10 4-3 5-7 8-11l15-10 5-4 4-9 1-3Z" fill="#000000"/></g><g transform="translate(-246 -234)"><path d="M603 613v1c-4 8-11 15-20 18-3 1-7 1-9-1v-4c7-5 16-9 24-12l5-2Z" fill="#000000"/></g><g transform="translate(-246 -234)"></g></g></svg>