<svg xmlns="http://www.w3.org/2000/svg" viewBox="0 0 600 600" fill="none" shape-rendering="auto" width="512" height="512"><metadata xmlns:rdf="http://www.w3.org/1999/02/22-rdf-syntax-ns#" xmlns:xsi="http://www.w3.org/2001/XMLSchema-instance" xmlns:dc="http://purl.org/dc/elements/1.1/" xmlns:dcterms="http://purl.org/dc/terms/"><rdf:RDF><rdf:Description><dc:title>Lorelei Neutral</dc:title><dc:creator>Lisa Wischofsky</dc:creator><dc:source xsi:type="dcterms:URI">https://www.figma.com/community/file/1198749693280469639</dc:source><dcterms:license xsi:type="dcterms:URI">https://creativecommons.org/publicdomain/zero/1.0/</dcterms:license><dc:rights>Remix of „Lorelei Neutral” (https://www.figma.com/community/file/1198749693280469639) by „Lisa Wischofsky”, licensed under „CC0 1.0” (https://creativecommons.org/publicdomain/zero/1.0/)</dc:rights></rdf:Description></rdf:RDF></metadata><mask id="viewboxMask"><rect width="600" height="600" rx="0" ry="0" x="0" y="0" fill="#fff" /></mask><g mask="url(#viewboxMask)"><rect fill="#ff94e8" width="600" height="600" x="0" y="0" /><g transform="translate(-246 -234)"><path d="M658 387c7 1 14 2 20 5l6 5c-8 5-18 8-28 8h-17l-16 2c-6 1-10 7-13 12-6 11-8 25-10 37-4-3-3-8-3-12 0-14 2-29 10-41 4-6 10-13 17-14 11-3 23-3 34-2ZM533 426c6-1 12 0 17 3 2 0 2 1 2 3l-8 8c-3 3-8 4-12 6l-18 3-47 3c-14 1-28 1-41 4-14 4-26 10-37 18l-9 8c-1-2-1-4 1-6 3-6 9-12 14-17 16-12 35-19 55-22l69-7c5 0 9-3 14-4Z" fill="#000000"/></g><g transform="translate(-246 -234)"><path d="M665 473c7-1 15-1 22 3 6 4 10 9 11 16l17 3c-4 4-11 6-17 6-5 0-11-1-15-4l-10-8c-6-3-11-2-17 0 3 3 6 6 7 10 4 12 3 25-2 36l10-5c1 6-1 10-5 13-8 9-21 10-33 10-4-1-10-3-12-7-3-4-1-8-3-12s-1-9 0-13a70 70 0 0 1 47-48ZM457 484c27 1 52 18 64 42 2 2 3 6 1 9-3 0-5-4-7-6-6-10-14-18-23-24-10-6-21-8-32-8 6 10 9 22 8 33-1 9-5 19-12 25l9 4c-6 3-12 3-18 2-11-3-21-8-30-15-9-6-16-15-19-25-14 0-29-2-43-8 3-2 5-2 8-2l28-4c4-1 8-1 11-4 15-13 35-20 55-19Z" fill="#000000"/></g><g transform="translate(-246 -234)"></g><g transform="translate(-246 -234)"><path d="M597 674h33c4 0 8-1 11 2s4 7 2 10c-3 7-10 12-13 18l1 5c1 4 1 9-2 12-4 5-11 7-18 8l12-11v-5c-2-3-5-4-6-8-1-7 3-12 7-17-7 0-13 0-19-2-3-2-8-4-10-7-1-2 0-4 2-5Z" fill="#000000"/></g><g transform="translate(-246 -234)"><path d="m591 528 2 2 7 22c4 8 10 15 15 23 4 6 6 13 5 20-1 6-4 12-9 16-7 7-16 12-25 16-5 3-11 4-17 2l5-4c11-9 25-14 36-24 2-2 4-6 4-9-1-7-5-11-8-16-5-9-10-16-13-25-2-7-4-16-2-23Z" fill="#000000"/></g><g transform="translate(-246 -234)"></g></g></svg>