<svg xmlns="http://www.w3.org/2000/svg" version="1.1" xmlns:xlink="http://www.w3.org/1999/xlink" width="1000" height="1000"><g clip-path="url(#SvgjsClipPath1370)"><rect width="1000" height="1000" fill="#ffffff"></rect><g transform="matrix(5,0,0,5,0,0)"><svg xmlns="http://www.w3.org/2000/svg" version="1.1" xmlns:xlink="http://www.w3.org/1999/xlink" width="200" height="200"><svg xmlns="http://www.w3.org/2000/svg" version="1.1" xmlns:xlink="http://www.w3.org/1999/xlink" viewBox="0 0 200 200"><rect width="200" height="200" fill="url('#gradient')"></rect><defs><linearGradient id="gradient" gradientTransform="rotate(27 0.5 0.5)"><stop offset="0%" stop-color="#49a346"></stop><stop offset="100%" stop-color="#b9e10f"></stop></linearGradient><clipPath id="SvgjsClipPath1370"><rect width="1000" height="1000" x="0" y="0" rx="500" ry="500"></rect></clipPath></defs><g><g fill="#000000" transform="matrix(3.726540161164544,0,0,3.726540161164544,26.006146935602274,126.49507590991229)" stroke="#ffffff" stroke-width="0.45"><path d="M12.96-14.22L12.96 0L9.55 0L9.55-5.94L4.50-5.94L4.50 0L1.07 0L1.07-14.22L4.50-14.22L4.50-8.57L9.55-8.57L9.55-14.22L12.96-14.22ZM26.01-14.22L26.01-11.57L21.74-11.57L21.74 0L18.31 0L18.31-11.57L14.12-11.57L14.12-14.22L26.01-14.22ZM33.07-4.82L30.88-4.82L30.88 0L27.45 0L27.45-14.22L33.13-14.22Q34.76-14.22 36.01-13.62Q37.27-13.02 37.95-11.91Q38.64-10.80 38.64-9.39L38.64-9.39Q38.64-7.31 37.15-6.07Q35.66-4.82 33.07-4.82L33.07-4.82ZM30.88-11.57L30.88-7.47L33.13-7.47Q34.12-7.47 34.64-7.97Q35.17-8.47 35.17-9.38L35.17-9.38Q35.17-10.37 34.63-10.97Q34.09-11.56 33.16-11.57L33.16-11.57L30.88-11.57Z"></path></g></g></svg></svg></g></g></svg>